<svg xmlns="http://www.w3.org/2000/svg" viewBox="0 0 520 370"><defs><style>.cls-1{fill:#00a8de}.cls-2{fill:#4d4d4d}.cls-3,.cls-4{fill:none;stroke-linecap:round;stroke-linejoin:round}.cls-3,.cls-5,.cls-6{stroke:#4d4d4d}.cls-3,.cls-6{stroke-width:5px}.cls-4{stroke:#fff;stroke-width:3px}.cls-5,.cls-6,.cls-7{fill:#fff}.cls-5,.cls-6{stroke-miterlimit:10}.cls-5{stroke-width:4.35px}.cls-8{fill:#dfdfdf}</style></defs><title>Step 1</title><g id="Step_1" data-name="Step 1"><rect class="cls-1" x="41.5" y="11.59" width="185.74" height="185.75" rx="6.55" ry="6.55"/><path class="cls-2" d="M473.13 6a3.28 3.28 0 0 1 3.27 3.27v41.49a3.28 3.28 0 0 1-3.27 3.24H287.32a3.28 3.28 0 0 1-3.32-3.24V9.27A3.28 3.28 0 0 1 287.32 6h185.81m0-5H287.32A8.28 8.28 0 0 0 279 9.27v41.49a8.28 8.28 0 0 0 8.32 8.24h185.81a8.28 8.28 0 0 0 8.27-8.27V9.27A8.28 8.28 0 0 0 473.13 1z"/><path class="cls-3" d="M297.24 20.74h73.58M297.24 39.3h165.97"/><path class="cls-2" d="M473.13 76a3.28 3.28 0 0 1 3.27 3.27v41.48a3.28 3.28 0 0 1-3.27 3.27H287.32a3.28 3.28 0 0 1-3.27-3.27V79.28a3.28 3.28 0 0 1 3.27-3.28h185.81m0-5H287.32a8.28 8.28 0 0 0-8.32 8.28v41.48a8.28 8.28 0 0 0 8.27 8.27h185.86a8.28 8.28 0 0 0 8.27-8.27V79.28a8.28 8.28 0 0 0-8.27-8.28z"/><path class="cls-3" d="M297.24 90.74h73.58m-73.58 18.56h165.97"/><path class="cls-2" d="M473.13 146a3.28 3.28 0 0 1 3.27 3.27v41.48a3.28 3.28 0 0 1-3.27 3.27H287.32a3.28 3.28 0 0 1-3.27-3.27v-41.47a3.28 3.28 0 0 1 3.27-3.27h185.81m0-5H287.32a8.28 8.28 0 0 0-8.27 8.27v41.48a8.28 8.28 0 0 0 8.27 8.27h185.81a8.28 8.28 0 0 0 8.27-8.27v-41.48a8.28 8.28 0 0 0-8.27-8.27z"/><path class="cls-3" d="M297.24 160.74h73.58m-73.58 18.56h165.97"/><path class="cls-2" d="M311.72 225.33a3.28 3.28 0 0 1 3.28 3.27v24a3.28 3.28 0 0 1-3.27 3.27h-24a3.28 3.28 0 0 1-3.27-3.27v-24a3.28 3.28 0 0 1 3.27-3.27h24m0-4h-24a7.28 7.28 0 0 0-7.27 7.27v24a7.28 7.28 0 0 0 7.27 7.27h24a7.28 7.28 0 0 0 7.27-7.27v-24a7.28 7.28 0 0 0-7.27-7.27z"/><path class="cls-3" d="M334.03 240.61h142.38m-381.7 0h142.38"/><rect class="cls-1" x="40.59" y="332.43" width="34.56" height="34.57" rx="5.27" ry="5.27"/><path class="cls-2" d="M69.88 334.43a3.28 3.28 0 0 1 3.27 3.27v24a3.28 3.28 0 0 1-3.27 3.3h-24a3.28 3.28 0 0 1-3.27-3.27v-24a3.28 3.28 0 0 1 3.27-3.27h24m0-4h-24a7.28 7.28 0 0 0-7.27 7.27v24a7.28 7.28 0 0 0 7.26 7.27h24a7.28 7.28 0 0 0 7.27-7.27v-24a7.28 7.28 0 0 0-7.27-7.27zm241.84 3.97a3.28 3.28 0 0 1 3.27 3.27v24a3.28 3.28 0 0 1-3.27 3.27h-24a3.28 3.28 0 0 1-3.27-3.27v-24a3.28 3.28 0 0 1 3.27-3.27h24m0-4h-24a7.28 7.28 0 0 0-7.27 7.27v24a7.28 7.28 0 0 0 7.27 7.27h24a7.28 7.28 0 0 0 7.27-7.27v-24a7.28 7.28 0 0 0-7.27-7.27z"/><path class="cls-3" d="M334.03 349.72h142.38m-381.7 0h142.38"/><path class="cls-4" d="M50.28 350.72l4.15 4.15 11.03-10.31"/><path class="cls-2" d="M69.88 279.88a3.28 3.28 0 0 1 3.27 3.27v24a3.28 3.28 0 0 1-3.27 3.27h-24a3.28 3.28 0 0 1-3.27-3.27v-24a3.28 3.28 0 0 1 3.27-3.27h24m0-4h-24a7.28 7.28 0 0 0-7.27 7.27v24a7.28 7.28 0 0 0 7.27 7.27h24a7.28 7.28 0 0 0 7.27-7.27v-24a7.28 7.28 0 0 0-7.27-7.27z"/><rect class="cls-1" x="282.43" y="277.88" width="34.56" height="34.57" rx="5.27" ry="5.27"/><path class="cls-2" d="M311.72 279.88a3.28 3.28 0 0 1 3.27 3.27v24a3.28 3.28 0 0 1-3.27 3.27h-24a3.28 3.28 0 0 1-3.27-3.27v-24a3.28 3.28 0 0 1 3.27-3.27h24m0-4h-24a7.28 7.28 0 0 0-7.27 7.27v24a7.28 7.28 0 0 0 7.27 7.27h24a7.28 7.28 0 0 0 7.27-7.27v-24a7.28 7.28 0 0 0-7.27-7.27z"/><path class="cls-3" d="M334.03 295.16h142.38m-381.7 0h142.38"/><path class="cls-4" d="M292.12 296.17l4.15 4.14 11.03-10.3"/><path class="cls-5" d="M66.64 197.34a110.67 110.67 0 0 1 145.75 0"/><path class="cls-6" d="M72.45 81.32s-5.33-22.62 2.08-44.48 34.9 3.42 34.9 3.42m97.77 41.06s5.33-22.61-2.08-44.48-34.9 3.42-34.9 3.42"/><circle class="cls-6" cx="139.75" cy="106.86" r="71.89"/><path class="cls-2" d="M149.69 116.41a9.73 9.73 0 1 1-19.46 0c0-5.41 19.46-5.41 19.46 0z"/><circle class="cls-2" cx="165.9" cy="100.4" r="8.45"/><circle class="cls-2" cx="113.6" cy="100.4" r="8.45"/><path class="cls-3" d="M232.09 114.81c-5.2-3.42-13.67-5.85-23.35-6.24s-18.32 1.34-23.78 4.33m33.33 24.56c-3.21-3.35-9-6.54-15.93-8.44s-13.55-2.09-18-.83M47.42 114.81c5.2-3.42 13.67-5.85 23.35-6.24s18.32 1.34 23.78 4.33m-33.34 24.56c3.21-3.35 9-6.54 15.93-8.44s13.55-2.09 18-.83m44.61 5.71a12.06 12.06 0 1 1-24.11 0m48.22 0a12.06 12.06 0 1 1-24.11 0m0 3.25v-11.19"/><path class="cls-7" d="M174.34 40.55l-6.66 5.32L204 86s2.73-14.46 2.18-25.79-31.84-19.66-31.84-19.66z"/><path class="cls-8" d="M76.27 78.18a119.41 119.41 0 0 1 2-35.76c1.6-7.14 5.27-8 7.88-8 6.46 0 15.39 6 20.44 10-5.59 3.69-17.72 13.29-30.32 33.76z"/><path class="cls-7" d="M86.15 31.94v5c4.5 0 11 3.67 16.2 7.39-5.7 4.26-14.57 12.27-24 26.08A111.86 111.86 0 0 1 80.72 43c1.35-6 4-6 5.43-6v-5m0 0c-4.7 0-8.67 2.55-10.33 9.93-5.09 22.68-1.11 44-1.11 44 18-32.28 36.21-41.05 36.21-41.05S96.69 31.94 86.15 31.94z"/><path class="cls-8" d="M80.59 69.52a.18.18 0 0 1-.21-.17 84.69 84.69 0 0 1 1.53-24.59c1.12-5 3.67-5.59 5.49-5.59 3.45 0 8.62 2.49 14.19 6.83a.17.17 0 0 1 .07.15.16.16 0 0 1-.08.14c-4.13 2.81-12.32 9.54-20.88 23.15-.03.07-.06.08-.11.08z"/><path class="cls-2" d="M87.4 41.18c2.59 0 6.61 1.82 11 4.95a79 79 0 0 0-16.3 17.59 79.11 79.11 0 0 1 1.77-18.52c.9-4 2.55-4 3.54-4m0-4C84 37.18 81.16 39 80 44.33a86.88 86.88 0 0 0-1.58 25.18 2.17 2.17 0 0 0 2.2 2 2.11 2.11 0 0 0 1.82-1c8.39-13.34 16.39-19.89 20.31-22.56a2.18 2.18 0 0 0 .11-3.52c-3.49-2.72-10.1-7.25-15.42-7.25z"/><path class="cls-8" d="M203.23 78.19c-12.6-20.47-24.71-30.08-30.32-33.77 5-4 14-10 20.44-10 2.62 0 6.28.83 7.88 8a119.24 119.24 0 0 1 2 35.77z"/><path class="cls-7" d="M193.36 37c1.43 0 4.08 0 5.43 6a111.86 111.86 0 0 1 2.4 27.46c-9.46-13.8-18.33-21.82-24-26.07 4.8-3.46 11.42-7.4 16.19-7.4m0-5c-10.55 0-24.76 12.83-24.76 12.83s18.21 8.77 36.21 41.05c0 0 4-21.28-1.11-44-1.65-7.38-5.63-9.93-10.33-9.93z"/><path class="cls-8" d="M198.92 69.52c-.06 0-.08 0-.12-.08-8.56-13.6-16.8-20.34-20.89-23.15a.17.17 0 0 1-.08-.14.18.18 0 0 1 .07-.15c5.57-4.34 10.74-6.83 14.19-6.83 1.82 0 4.36.58 5.49 5.59a84.68 84.68 0 0 1 1.54 24.59.18.18 0 0 1-.21.17z"/><path class="cls-2" d="M192.1 41.18c1 0 2.63 0 3.53 4a79.09 79.09 0 0 1 1.76 18.51 79 79 0 0 0-16.3-17.59c4.4-3.13 8.42-4.95 11-4.95m0-4c-5.32 0-11.93 4.53-15.42 7.25a2.18 2.18 0 0 0 .11 3.52c3.92 2.67 11.92 9.21 20.31 22.56a2.11 2.11 0 0 0 1.82 1 2.17 2.17 0 0 0 2.2-2 86.87 86.87 0 0 0-1.58-25.18c-1.19-5.31-4.05-7.15-7.44-7.15z"/><rect class="cls-1" x="40.59" y="223.33" width="34.56" height="34.57" rx="5.27" ry="5.27"/><path class="cls-2" d="M69.88 225.33a3.28 3.28 0 0 1 3.27 3.27v24a3.28 3.28 0 0 1-3.27 3.27h-24a3.28 3.28 0 0 1-3.27-3.27v-24a3.28 3.28 0 0 1 3.27-3.27h24m0-4h-24a7.28 7.28 0 0 0-7.27 7.27v24a7.28 7.28 0 0 0 7.27 7.27h24a7.28 7.28 0 0 0 7.27-7.27v-24a7.28 7.28 0 0 0-7.27-7.27z"/><path class="cls-4" d="M50.28 241.61l4.15 4.15 11.03-10.3"/><path class="cls-2" d="M227.22 6a6.57 6.57 0 0 1 6.55 6.55v174.94a6.57 6.57 0 0 1-6.55 6.55H52.29a6.57 6.57 0 0 1-6.55-6.55V12.55A6.57 6.57 0 0 1 52.29 6h174.93m0-5H52.29a11.56 11.56 0 0 0-11.55 11.55v174.94A11.56 11.56 0 0 0 52.29 199h174.93a11.56 11.56 0 0 0 11.55-11.55V12.55A11.56 11.56 0 0 0 227.22 1z"/><path class="cls-6" d="M139.11 187.64c-22.48 0-38.19-7.3-39.17-7.77a4.9 4.9 0 0 1 4.21-8.85c.32.15 32.9 15.14 70-.11a4.9 4.9 0 0 1 3.72 9.07 101.72 101.72 0 0 1-38.76 7.66z"/></g></svg>