<svg xmlns="http://www.w3.org/2000/svg" viewBox="0 0 520 370"><defs><style>.cls-1,.cls-3,.cls-8{fill:#fff}.cls-1,.cls-4,.cls-6,.cls-7,.cls-8,.cls-9{stroke:#4d4d4d}.cls-1,.cls-4,.cls-9{stroke-miterlimit:10}.cls-1,.cls-4,.cls-6,.cls-7,.cls-8{stroke-width:5px}.cls-2,.cls-7{fill:#00a8de}.cls-4,.cls-6,.cls-9{fill:none}.cls-5{fill:#4d4d4d}.cls-6,.cls-7,.cls-8{stroke-linecap:round;stroke-linejoin:round}.cls-9{stroke-width:.75px}.cls-10{fill:#dfdfdf}</style></defs><title>Step 3</title><g id="Step_3" data-name="Step 3"><ellipse class="cls-1" cx="325.11" cy="105.33" rx="63.28" ry="63.27" transform="rotate(-.09 337.323 108.49)"/><path class="cls-2" d="M7.82 296.55a118.8 118.8 0 0 1 237.6-.39c.1 65.5-237.5 65.89-237.6.39z"/><path class="cls-3" d="M109 295.19a23.24 23.24 0 0 0 22.5 16 25.66 25.66 0 0 0 22.75-16.75 23.2 23.2 0 0 0-8-25.93c-5.67-4.34-12.94-4.95-19.86-4-13.72 1.82-21.39 18.41-17.39 30.68zM93.46 253a13.3 13.3 0 0 0 11.89 9.84c12.87.73 18.64-17.37 6.82-23.35-8.23-4.14-20.89 3.91-18.71 13.51zM128 240.86c-1.06 3.31-.8 7.34 1.71 9.91 6.68 6.87 19.34 4.68 19.32-6.08-.03-10.41-17.73-13.97-21.03-3.83zm29.85 24.48c8.11 2.41 14.47-8.32 8.44-14.22a8.53 8.53 0 1 0-8.44 14.22zm4.83 16.43a6.72 6.72 0 0 0 3 3.56c4.8 2.77 11.85 0 13.12-5.45 1.8-7.42-6-11.74-12.22-8.81-3.92 1.83-5.36 6.93-3.9 10.7z"/><path class="cls-1" d="M180.45 180.64A52.35 52.35 0 0 1 84 182"/><ellipse class="cls-3" cx="129.83" cy="180.87" rx="40.77" ry="12.88" transform="rotate(-.09 133.54 191.09)"/><path class="cls-4" d="M9.17 295.29a123 123 0 0 1 245.94-.4c.11 67.89-245.83 68.29-245.94.4z"/><ellipse class="cls-1" cx="131.8" cy="94.03" rx="84.61" ry="84.58" transform="rotate(-.09 139.981 95.603)"/><path class="cls-4" d="M181.29 25.87C148.35 88.48 60.65 47 60.65 47"/><circle class="cls-5" cx="162.57" cy="86.38" r="9.94" transform="rotate(-.09 171.817 89.262)"/><circle class="cls-5" cx="101.02" cy="86.48" r="9.94" transform="rotate(-.09 108.155 89.212)"/><path class="cls-6" d="M104.1 127a34.38 34.38 0 0 0 55.51-.09"/><path class="cls-5" d="M60.65 48.18s15.07-23.12 40.89-31.54 45.2-8.76 79.95 9.21c0 0-27.93 57.15-120.84 22.33z"/><g id="Girl_and_Dog" data-name="Girl and Dog"><path class="cls-7" d="M220 284.62a103.64 103.64 0 0 1 207.29-.34c.05 57.22-207.29 57.56-207.29.34z"/><circle class="cls-5" cx="349.22" cy="92.23" r="8.38" transform="rotate(-.09 362.798 95.778)"/><circle class="cls-5" cx="297.35" cy="92.32" r="8.38" transform="rotate(-.09 311.869 95.738)"/><path class="cls-6" d="M299.95 126.5a29 29 0 0 0 46.79-.08"/><path class="cls-8" d="M295.31 223.09c-2.9 9.56-5.78 19.12-8.7 28.67a3.58 3.58 0 0 1-2.43 2.77c-9.47 4.73-18.15 9.35-24.31 18.23a49.72 49.72 0 0 0-8.87 26.47 41.25 41.25 0 0 0 1 10.67c4.12 17.8 21.14 28.95 36.38 37a123.72 123.72 0 0 0 52.29 14.1c19.68.8 66.21 5.94 67.32-24.41 1.47-40-59.62-76.95-59.62-76.95l1.68-30"/><path class="cls-2" d="M220 285.71s-4.71 42.19 79.38 70.07c0 0 10.32-17.27 5.79-34 0 0-53.58-23.15-58.13-55.88"/><path class="cls-6" d="M220 285.71s-4.71 42.19 79.38 70.07c0 0 10.32-17.27 5.79-34 0 0-53.58-23.15-58.13-55.88"/><path class="cls-9" d="M222.33 275.38a80.73 80.73 0 0 0 2.23 23.92"/><path class="cls-3" d="M313.71 366.5A54.7 54.7 0 0 1 301 365a25.65 25.65 0 0 1-15.39-11.23 17.27 17.27 0 0 1-2.08-13.57c1.66-6.22 6.66-9.79 13.73-9.79a20.26 20.26 0 0 1 4.47.47 36.65 36.65 0 0 0 6.15.62c3.37 0 4.09-.77 4.1-.78s.14-.8-1.41-3c-3.54-5-4.47-9.17-2.74-12.52 1.51-2.94 5-4.69 9.38-4.69a16 16 0 0 1 3.2.32c6.87 1.41 18 10.73 19.2 11.79l.09.08.09.09c.5.51 12.12 12.75 10.64 24-.61 4.63-3.25 8.38-7.85 11.16-9.39 5.67-19.11 8.54-28.89 8.54z"/><path class="cls-5" d="M317.23 313a13.56 13.56 0 0 1 2.7.27c6.44 1.32 18.08 11.24 18.08 11.24s20.27 21.06 3.3 31.31c-10.5 6.34-19.91 8.18-27.6 8.18a52.35 52.35 0 0 1-12.11-1.47c-8.64-2-18.44-11.17-15.63-21.73 1.79-6.71 7.43-7.93 11.31-7.93a18 18 0 0 1 3.87.4 38.61 38.61 0 0 0 6.74.69c4.66 0 9.28-1.34 4.73-7.71-6.77-9.48-1.19-13.25 4.61-13.25m0-5c-5.32 0-9.66 2.26-11.61 6-1.49 2.89-2.2 7.82 2.79 14.91h-.52a33.65 33.65 0 0 1-5.7-.58 23.45 23.45 0 0 0-4.92-.51c-8.28 0-14.17 4.24-16.14 11.64a19.72 19.72 0 0 0 2.35 15.5 27.87 27.87 0 0 0 17 12.38 57.17 57.17 0 0 0 13.23 1.66c10.24 0 20.4-3 30.18-8.9 6.58-4 8.55-9.25 9-13 1.61-12.25-10-24.7-11.32-26.08l-.17-.18-.19-.16c-2.11-1.8-13-10.84-20.32-12.34a18.51 18.51 0 0 0-3.7-.37zm-6.66 20.66z"/><path class="cls-2" d="M426.66 287s4.85 42.17-79.15 70.33c0 0-10.37-17.24-5.91-34 0 0 53.5-23.33 57.95-56.07"/><path class="cls-6" d="M426.66 287s4.85 42.17-79.15 70.33c0 0-10.37-17.24-5.91-34 0 0 53.5-23.33 57.95-56.07"/><path class="cls-2" d="M424.4 283.39s1.52 8.21-5.9 23.28"/><path class="cls-3" d="M372 196a87 87 0 0 1 22.06 16.14 106.07 106.07 0 0 1 16.56 21.47 104.31 104.31 0 0 1 10.59 24.86 84.45 84.45 0 0 1 3.12 26.82 48.79 48.79 0 0 1-2.42 13.41 51.15 51.15 0 0 1-6 12.19 77.47 77.47 0 0 1-18.81 19.06 145.2 145.2 0 0 1-22.92 13.55 252.69 252.69 0 0 1-24.54 10.17 252.31 252.31 0 0 0 24.18-10.89 144 144 0 0 0 22.31-14.11 75.48 75.48 0 0 0 17.75-19.08 48.54 48.54 0 0 0 5.34-11.73 46.46 46.46 0 0 0 1.9-12.69 80.9 80.9 0 0 0-3.66-25.61A100.07 100.07 0 0 0 406.68 236a101.13 101.13 0 0 0-16.31-20 81.35 81.35 0 0 0-21-14.55z"/><g id="Dog_Head" data-name="Dog Head"><ellipse class="cls-3" cx="325.28" cy="216.25" rx="26.98" ry="40.61" transform="rotate(-.09 337.233 223.082)"/><path class="cls-8" d="M351.12 176.13s-26.7-24.64-60.36-9.72-37.64 9-53.49 6c-2.19-.41-3.58 15.62-3.6 17.31-.11 9.79 3.76 16.4 13.37 21.73 7.95 4.41 15.67 4.9 24.14 3.84 5.43-.68 18.3-3.87 18.3-3.87 1.65 12.71-20.9 16-20.9 16 6.24 7.93 27.82 7.12 36.06.75"/><path class="cls-1" d="M374.33 210.16c-2.06-9.37-5.3-18.93-10.75-26.91-2.45-3.59-6.42-8.16-11-8.8-6.62-.92-8.37 6.9-9.34 11.79-2.8 14.14-4.55 32.35-.56 47.59a47.31 47.31 0 0 0 5.1 12.45 14.93 14.93 0 0 0 5.33 5.57c7.34 4 16.2-3.66 19.11-10 4.46-9.74 4.37-21.41 2.11-31.69z"/><path class="cls-7" d="M325 273.12a59.26 59.26 0 0 1-9.43-.75c-13.06-2.09-24.41-8.24-31.16-16.88a4.33 4.33 0 0 1 6.83-5.33c5.33 6.83 14.93 11.94 25.69 13.65s21.47-.14 28.66-5a4.33 4.33 0 1 1 4.83 7.19c-6.87 4.66-15.82 7.11-25.42 7.12z"/><circle class="cls-5" cx="236.83" cy="173.27" r="8.38" transform="rotate(-.09 248.142 178.448)"/><path class="cls-6" d="M288.71 182.78a10.12 10.12 0 0 1 17.58 5.93"/></g><path class="cls-1" d="M467.46 308.12a10.4 10.4 0 0 0-1.49-.36 10.23 10.23 0 0 0-11.73 8.45A32.12 32.12 0 0 1 408 339.84a10.22 10.22 0 1 0-9.15 18.28 52.57 52.57 0 0 0 75.55-38.63 10.22 10.22 0 0 0-6.94-11.37z"/><path class="cls-6" d="M498.92 291.66a29 29 0 0 1 .06 46.77M484.88 298a21.38 21.38 0 0 1 0 34.53"/><path class="cls-10" d="M369.11 171a5.15 5.15 0 0 1-4.11-2 5.09 5.09 0 0 1-.84-4.5 8.12 8.12 0 0 1 3.28-4.09 12.67 12.67 0 0 0 1-.85 29.13 29.13 0 0 0 2.59-2.91 36.09 36.09 0 0 0 4.2-7 64.3 64.3 0 0 0 4.9-17.79c1.64-11.31 1.62-23.78 0-39.24-.48-4.43-1.09-8.95-1.82-13.41 0-.1-.06-.38-.12-.79-.17-1.2-.51-3.63-.83-5.35-5.69-.14-23.05-2.22-29.75-21.66C337 67 315 70.3 298.25 70.3a141.79 141.79 0 0 1-21.53-1.67c-1.31 4.08-1.85 5.82-1.92 6.08-1.11 4.37-2.11 8.81-3 13.2-3 15.26-4.07 27.68-3.41 39.09a64.29 64.29 0 0 0 3.36 18.15 36.11 36.11 0 0 0 3.58 7.37 29.11 29.11 0 0 0 2.33 3.12 12.52 12.52 0 0 0 .95.93 8.13 8.13 0 0 1 2.91 4.35 5.17 5.17 0 0 1-5 6.13 5 5 0 0 1-2-.41c-2.49-1.07-4.58-3.22-6.43-5.11-.43-.44-.85-.87-1.25-1.26a92.25 92.25 0 0 1-6.52-7 101.55 101.55 0 0 1-10.89-15.62 99.73 99.73 0 0 1-13.17-53.42c1-23.93 11.37-45.26 29.11-60.07 16-13.35 37.23-20.7 59.77-20.7 1.51 0 3 0 4.56.1 24.31 1 46.44 10.29 62.32 26C408.44 45.91 416.91 68 415.88 92a99.74 99.74 0 0 1-17.7 52.1A101.54 101.54 0 0 1 386 158.7a96.963 96.963 0 0 1-7.09 6.38c-.43.35-.89.74-1.36 1.15-2 1.72-4.28 3.68-6.85 4.54a5 5 0 0 1-1.59.23z"/><path class="cls-5" d="M325.15 6q2.21 0 4.45.1c23.69 1 45.23 10 60.67 25.32 15.9 15.77 24.11 37.24 23.12 60.46a97.92 97.92 0 0 1-17.26 50.79 99 99 0 0 1-11.89 14.27q-3.3 3.27-6.91 6.22c-2.16 1.76-4.76 4.36-7.41 5.25a2.51 2.51 0 0 1-.8.13 2.67 2.67 0 0 1-2.52-3.37c.49-1.72 2.43-2.65 3.65-3.84a31.58 31.58 0 0 0 2.81-3.16 38.52 38.52 0 0 0 4.49-7.52 67.09 67.09 0 0 0 5.1-18.48c1.91-13.17 1.39-26.67 0-39.86q-.73-6.8-1.84-13.55c-.07-.42-.57-4.16-1-6.47a2.16 2.16 0 0 0-2.08-1.77c-5.19-.08-21.79-1.82-27.92-20.57a2.17 2.17 0 0 0-3.89-.5c-9.79 15.05-30.98 18.35-47.67 18.35a140.07 140.07 0 0 1-21.42-1.69h-.35a2.15 2.15 0 0 0-2.05 1.5c-.74 2.31-1.94 6.08-2 6.49q-1.68 6.63-3 13.34c-2.55 13-4.22 26.43-3.45 39.71a67.09 67.09 0 0 0 3.5 18.85 38.51 38.51 0 0 0 3.83 7.88 31.57 31.57 0 0 0 2.53 3.39c1.11 1.29 3 2.39 3.3 4.14a2.67 2.67 0 0 1-2.59 3.16 2.5 2.5 0 0 1-1-.21c-2.57-1.11-4.94-3.93-6.94-5.86q-3.34-3.24-6.35-6.79a99 99 0 0 1-10.63-15.23 97.91 97.91 0 0 1-12.85-52.08c1-23.22 11-43.9 28.21-58.26C282.63 13.07 303.14 6 325.15 6m0-5C302 1 280.23 8.56 263.78 22.28c-18.29 15.26-28.95 37.24-30 61.88a102.23 102.23 0 0 0 13.49 54.76 104.16 104.16 0 0 0 11.16 16c2.11 2.49 4.36 4.89 6.68 7.14.39.38.79.79 1.21 1.21 1.91 2 4.29 4.38 7.23 5.65a7.47 7.47 0 0 0 3 .62 7.67 7.67 0 0 0 7.49-9.11 10.47 10.47 0 0 0-3.67-5.71c-.29-.27-.6-.55-.74-.72a26.69 26.69 0 0 1-2.13-2.85 33.65 33.65 0 0 1-3.33-6.86 61.86 61.86 0 0 1-3.21-17.45c-.65-11.19.42-23.41 3.36-38.46.85-4.33 1.83-8.71 2.93-13 0-.15.25-.84 1.24-3.94a145.44 145.44 0 0 0 19.8 1.39c22.44 0 39.13-5.69 48.67-16.51 7.27 15.36 21.37 18.5 28.3 19.09.2 1.27.38 2.55.49 3.32.06.43.11.74.12.84.72 4.41 1.33 8.88 1.81 13.28 1.64 15.25 1.66 27.52.05 38.61a61.85 61.85 0 0 1-4.7 17.11 33.65 33.65 0 0 1-3.9 6.55 26.7 26.7 0 0 1-2.37 2.66c-.16.16-.49.41-.8.66a10.47 10.47 0 0 0-4.15 5.37 7.57 7.57 0 0 0 1.25 6.69 7.66 7.66 0 0 0 6.07 3.06 7.52 7.52 0 0 0 2.38-.39c3-1 5.61-3.23 7.69-5 .45-.39.89-.76 1.3-1.1 2.51-2 5-4.24 7.27-6.54a104.17 104.17 0 0 0 12.49-15 102.23 102.23 0 0 0 18.14-53.41c1.06-24.64-7.68-47.45-24.59-64.22-16.32-16.19-39-25.69-64-26.76-1.55-.07-3.12-.1-4.66-.1z"/></g></g></svg>