<svg id="Step_4" data-name="Step 4" xmlns="http://www.w3.org/2000/svg" viewBox="0 0 520 370"><defs><style>.cls-1{fill:#00a8de}.cls-2{fill:#4d4d4d}.cls-3,.cls-5{fill:none}.cls-3,.cls-4,.cls-5,.cls-6{stroke:#4d4d4d;stroke-width:5px}.cls-3{stroke-linecap:round;stroke-linejoin:round}.cls-4,.cls-8{fill:#fff}.cls-4,.cls-5,.cls-6{stroke-miterlimit:10}.cls-6,.cls-7{fill:#dfdfdf}</style></defs><title>Step 4</title><path class="cls-1" d="M54.13 85.11H449.3a5.93 5.93 0 0 1 5.93 5.89v273.31H60.07a5.93 5.93 0 0 1-5.93-5.93V85.11h-.01z"/><path class="cls-2" d="M458.5 79.48a5.88 5.88 0 0 1 5.87 5.87v272.79a5.88 5.88 0 0 1-5.87 5.86h-397a5.88 5.88 0 0 1-5.87-5.87V85.35a5.88 5.88 0 0 1 5.87-5.87h397m0-5h-397a10.88 10.88 0 0 0-10.86 10.87v272.79A10.88 10.88 0 0 0 61.5 369h397a10.88 10.88 0 0 0 10.87-10.87V85.35a10.88 10.88 0 0 0-10.87-10.87z"/><path class="cls-3" d="M467.82 97.45h19.55m-19.55 17.75h19.55m-19.55 17.76h19.55m-19.55 17.76h19.55m-19.55 17.75h19.55m-19.55 17.76h19.55m-19.55 17.76h19.55m-19.55 17.75h19.55m-19.55 17.76h19.55m-19.55 17.76h19.55m-19.55 17.75h19.55m-19.55 17.76h19.55m-19.55 17.76h19.55m-19.55 17.76h19.55m-19.55 17.75h19.55M32.63 97.45h19.55M32.63 115.2h19.55m-19.55 17.76h19.55m-19.55 17.76h19.55m-19.55 17.75h19.55m-19.55 17.76h19.55m-19.55 17.76h19.55m-19.55 17.75h19.55M32.63 239.5h19.55m-19.55 17.76h19.55m-19.55 17.75h19.55m-19.55 17.76h19.55m-19.55 17.76h19.55m-19.55 17.76h19.55m-19.55 17.75h19.55"/><ellipse class="cls-4" cx="124.97" cy="263.47" rx="17.48" ry="17.49"/><ellipse class="cls-4" cx="193.51" cy="263.47" rx="17.48" ry="17.49"/><path class="cls-4" d="M234.33 183c0 46.64-33.62 90.49-75.09 90.49S84.15 229.64 84.15 183s33.62-78.4 75.09-78.4 75.09 31.77 75.09 78.4z"/><path class="cls-4" d="M104 180.39s-4.38-18.58 1.71-36.54 28.66 2.81 28.66 2.81m80.27 33.73s4.38-18.58-1.71-36.54-28.66 2.81-28.66 2.81"/><circle class="cls-2" cx="180.72" cy="196.07" r="6.94"/><circle class="cls-2" cx="137.77" cy="196.07" r="6.94"/><path class="cls-4" d="M159.87 112.76a9.11 9.11 0 0 1-1.34-.1 9 9 0 0 1-7.54-10.2 28.16 28.16 0 0 0-32.28-32.08A9 9 0 0 1 116 52.67a46.1 46.1 0 0 1 52.78 52.46 9 9 0 0 1-8.91 7.63z"/><path class="cls-2" d="M167.41 209.22a8 8 0 1 1-16 0c.02-4.42 16-4.42 16 0z"/><path class="cls-3" d="M159.24 223.58a9.9 9.9 0 1 1-19.8 0m39.56 0a9.9 9.9 0 1 1-19.8 0m.04 2.67v-9.19"/><ellipse class="cls-5" cx="159.24" cy="201.38" rx="59.04" ry="59.06"/><path class="cls-3" d="M235.08 207.91c-4.27-2.81-11.23-4.81-19.18-5.13s-15 1.1-19.53 3.56m27.38 20.17c-2.63-2.75-7.36-5.37-13.09-6.94s-11.13-1.71-14.79-.68M83.41 207.91c4.27-2.81 11.23-4.81 19.18-5.13s15 1.1 19.53 3.56m-27.38 20.17c2.63-2.75 7.36-5.37 13.09-6.94s11.13-1.71 14.79-.68"/><ellipse class="cls-4" cx="309.78" cy="259.31" rx="21.16" ry="21.17"/><ellipse class="cls-4" cx="392.74" cy="259.31" rx="21.16" ry="21.17"/><path class="cls-4" d="M442.15 161.93c0 56.45-40.69 109.53-90.89 109.53s-90.89-53.08-90.89-109.53S301.06 67 351.26 67s90.89 38.47 90.89 94.93z"/><circle class="cls-2" cx="377.25" cy="177.74" r="8.4"/><circle class="cls-2" cx="325.27" cy="177.74" r="8.4"/><path class="cls-4" d="M349.72 76.9a11 11 0 0 0 1.62-.12 10.85 10.85 0 0 0 9.13-12.34 34.09 34.09 0 0 1 39.07-38.83 10.85 10.85 0 0 0 3.34-21.45A55.79 55.79 0 0 0 339 67.65a10.85 10.85 0 0 0 10.72 9.25z"/><ellipse class="cls-5" cx="351.26" cy="184.16" rx="71.46" ry="71.48"/><path class="cls-3" d="M446.62 20.09a26.16 26.16 0 0 1-18.25 38.1m4.36-38.45a19.31 19.31 0 0 1-13.47 28.12"/><path class="cls-4" d="M417.81 185.89a42.73 42.73 0 0 0 8.89 8.28 13.48 13.48 0 0 0 6.48 2.55c7.54.54 11.9-9.13 11.89-15.42 0-9.68-4.51-19.22-10.25-26.8-5.23-6.91-11.51-13.52-19-18-3.37-2-8.35-4.27-12.36-3.05-5.77 1.75-4.25 8.82-3.19 13.21 3.05 12.65 8.51 28.25 17.54 39.23zm-133.1 0a42.73 42.73 0 0 1-8.89 8.28 13.48 13.48 0 0 1-6.48 2.55c-7.54.54-11.9-9.13-11.89-15.42 0-9.68 4.51-19.22 10.25-26.8 5.23-6.91 11.51-13.52 19-18 3.37-2 8.35-4.27 12.36-3.05 5.77 1.75 4.25 8.82 3.19 13.21-3.05 12.65-8.51 28.25-17.54 39.23z"/><path class="cls-6" d="M363.69 221.74v11.49a12.26 12.26 0 0 1-12.22 12.23 12.26 12.26 0 0 1-12.22-12.23v-11.49"/><path class="cls-3" d="M351.47 245v-43.15"/><path class="cls-2" d="M361.14 193.65a9.67 9.67 0 1 1-19.34 0c0-5.34 19.34-5.34 19.34 0z"/><path class="cls-3" d="M351.26 211a12 12 0 1 1-24 0m47.97 0a12 12 0 1 1-24 0m.03 3.27v-11.12"/><path class="cls-7" d="M107.63 177a96.68 96.68 0 0 1 1.68-28.36c1.27-5.66 4.14-6.31 6.19-6.31 5.09 0 12.13 4.64 16.25 7.87-4.64 3.1-14.17 10.8-24.12 26.8z"/><path class="cls-8" d="M115.51 140v4.57c3.41 0 8.36 2.7 12.41 5.56-4.52 3.46-11.2 9.61-18.35 19.78a89.62 89.62 0 0 1 2-20.81c1-4.53 2.86-4.53 4-4.53V140m0 0c-3.83 0-7.07 2.08-8.42 8.09a99.79 99.79 0 0 0-.91 35.83c14.66-26.31 29.51-33.46 29.51-33.46S124.1 140 115.51 140z"/><path class="cls-7" d="M111.1 170.11c-.14 0-.14-.08-.15-.12a68.74 68.74 0 0 1 1.29-19.46c.88-3.91 2.75-4.41 4.29-4.41 2.72 0 6.83 2 11.26 5.38a.11.11 0 0 1 0 .1.15.15 0 0 1-.07.12C124.5 154 118 159.38 111.2 170c-.04.1-.05.11-.1.11z"/><path class="cls-2" d="M116.53 147.94c1.95 0 5 1.35 8.33 3.67a64.77 64.77 0 0 0-12.27 13.15 63.38 63.38 0 0 1 1.41-13.83c.67-3 1.78-3 2.51-3m0-3.64c-2.76 0-5.09 1.5-6.06 5.83a70.53 70.53 0 0 0-1.33 20 1.93 1.93 0 0 0 2 1.81 1.91 1.91 0 0 0 1.63-.91c6.6-10.36 12.85-15.57 16.07-17.8a2 2 0 0 0 .1-3.16c-2.89-2.23-8.14-5.76-12.38-5.76z"/><path class="cls-7" d="M210.76 177c-10-16-19.48-23.69-24.13-26.81 4.13-3.23 11.16-7.87 16.25-7.87 2 0 4.92.65 6.19 6.31a96.58 96.58 0 0 1 1.69 28.37z"/><path class="cls-8" d="M202.88 144.6c1.1 0 2.95 0 4 4.53a89.61 89.61 0 0 1 2 20.81c-7.14-10.16-13.82-16.31-18.33-19.77.5-.36 1-.72 1.59-1.09 4.38-2.89 8.22-4.48 10.8-4.48m0-4.57c-8.59 0-20.18 10.46-20.18 10.46s14.84 7.15 29.51 33.46a99.79 99.79 0 0 0-.91-35.83c-1.35-6-4.59-8.09-8.42-8.09z"/><path class="cls-7" d="M207.28 170.11s-.06 0-.1-.07c-6.79-10.66-13.3-16.05-16.57-18.32a.15.15 0 0 1-.07-.12.1.1 0 0 1 0-.1c4.44-3.42 8.54-5.38 11.26-5.38 1.54 0 3.41.5 4.29 4.41a68.76 68.76 0 0 1 1.34 19.47s0 .12-.15.12z"/><path class="cls-2" d="M201.86 147.94c.73 0 1.84 0 2.51 3a63.38 63.38 0 0 1 1.43 13.83 64.77 64.77 0 0 0-12.27-13.15c3.35-2.32 6.38-3.67 8.33-3.67m0-3.64c-4.24 0-9.49 3.53-12.38 5.76a2 2 0 0 0 .1 3.16c3.22 2.23 9.47 7.44 16.07 17.8a1.91 1.91 0 0 0 1.63.91 1.93 1.93 0 0 0 2-1.81 70.53 70.53 0 0 0-1.33-20c-1-4.33-3.3-5.83-6.06-5.83z"/><path class="cls-8" d="M134.15 340.48a6.06 6.06 0 0 1-5.67-4.43l-3.38-13.6-3.33 13.55a6 6 0 0 1-5.66 4.44h-1.9a6.14 6.14 0 0 1-5.7-4.39l-7.86-29.7a4.19 4.19 0 0 1 4.17-5.41h1.81a6 6 0 0 1 5.63 4.47l3.13 13.46 3.45-13.51a6.09 6.09 0 0 1 5.66-4.36h1.31a6.06 6.06 0 0 1 5.66 4.43l3.41 13.76 3.27-13.74a6 6 0 0 1 5.64-4.46h1.66a4.18 4.18 0 0 1 4.15 5.42l-8 29.71a6.16 6.16 0 0 1-5.71 4.38z"/><path class="cls-2" d="M145.45 303a2.19 2.19 0 0 1 2.22 2.9l-8 29.71a4.14 4.14 0 0 1-3.78 2.9h-1.75a4 4 0 0 1-3.72-2.91l-4.57-18.34c-.4-1.6-.75-2.91-.77-2.91s-.37 1.31-.76 2.91l-4.49 18.34a4 4 0 0 1-3.71 2.91h-1.9a4.12 4.12 0 0 1-3.77-2.9l-7.86-29.7a2.2 2.2 0 0 1 2.23-2.9h1.81a4 4 0 0 1 3.68 2.92l4.26 18.32c.37 1.61.7 2.92.73 2.92s.38-1.31.79-2.91l4.68-18.35a4.08 4.08 0 0 1 3.73-2.91h1.31a4 4 0 0 1 3.72 2.91l4.62 18.64c.4 1.6.74 2.91.77 2.91s.36-1.31.74-2.92l4.43-18.63a4 4 0 0 1 3.69-2.92h1.66m0-4h-1.66a8 8 0 0 0-7.59 6l-1.36 5.72-1.43-5.77a8 8 0 0 0-7.6-5.95h-1.3a8.06 8.06 0 0 0-7.62 5.92l-1.42 5.56-1.26-5.47a7.94 7.94 0 0 0-7.58-6h-1.81a6.19 6.19 0 0 0-6.1 7.92l7.86 29.7a8.11 8.11 0 0 0 7.63 5.88h1.9a8 8 0 0 0 7.6-6l1.4-5.72 1.43 5.73a8 8 0 0 0 7.61 5.94h1.75a8.13 8.13 0 0 0 7.64-5.86l8-29.71a6.18 6.18 0 0 0-6.08-7.94z"/><path class="cls-8" d="M164 340.48a5 5 0 0 1-5-5V306a5 5 0 0 1 5-5h20.55a5 5 0 0 1 5 5v.56a5 5 0 0 1-5 5h-12.77a1 1 0 0 0-1 1v1.61a1 1 0 0 0 1 1H183a5 5 0 0 1 0 10.07h-11.2a1 1 0 0 0-1 1v2.7a1 1 0 0 0 1 1h13.14a5 5 0 0 1 5 5v.56a5 5 0 0 1-5 5z"/><path class="cls-2" d="M184.52 303a3 3 0 0 1 3 3v.56a3 3 0 0 1-3 3h-12.74a3 3 0 0 0-3 3v1.61a3 3 0 0 0 3 3H183a3 3 0 0 1 3 3v.07a3 3 0 0 1-3 3h-11.2a3 3 0 0 0-3 3v2.7a3 3 0 0 0 3 3h13.14a3 3 0 0 1 3 3v.56a3 3 0 0 1-3 3H164a3 3 0 0 1-3-3V306a3 3 0 0 1 3-3h20.55m0-4H164a7 7 0 0 0-7 7v29.5a7 7 0 0 0 7 7h20.94a7 7 0 0 0 7-7v-.56a7 7 0 0 0-7-7h-12.16v-.7H183a7 7 0 0 0 7-7v-.07a7 7 0 0 0-4.79-6.64 7 7 0 0 0 6.33-7V306a7 7 0 0 0-7-7z"/><path class="cls-8" d="M205.14 340.48a5 5 0 0 1-5-5V306a5 5 0 0 1 5-5h1.8a5 5 0 0 1 5 5v22.94a1 1 0 0 0 1 1h11.3a5 5 0 0 1 5 5v.56a5 5 0 0 1-5 5z"/><path class="cls-2" d="M206.94 303a3 3 0 0 1 3 3v22.94a3 3 0 0 0 3 3h11.3a3 3 0 0 1 3 3v.56a3 3 0 0 1-3 3h-19.1a3 3 0 0 1-3-3V306a3 3 0 0 1 3-3h1.8m0-4h-1.8a7 7 0 0 0-7 7v29.5a7 7 0 0 0 7 7h19.11a7 7 0 0 0 7-7v-.56a7 7 0 0 0-7-7h-10.3V306a7 7 0 0 0-7-7z"/><path class="cls-8" d="M256.47 341.27a20.27 20.27 0 0 1-8.13-1.58 17.79 17.79 0 0 1-6.18-4.4 19.33 19.33 0 0 1-3.83-6.51 23.5 23.5 0 0 1-1.31-7.9 24.25 24.25 0 0 1 1.31-8 19.81 19.81 0 0 1 3.82-6.6 17.77 17.77 0 0 1 6.18-4.48 21 21 0 0 1 14.3-.67 17.07 17.07 0 0 1 5.29 2.79 15.34 15.34 0 0 1 3.92 4.59 11.62 11.62 0 0 1 1.3 3.11 4.35 4.35 0 0 1-4.36 5.34h-1.56c-2.13 0-4.53-1-5.25-2.86l-.34-.54a5.87 5.87 0 0 0-1.3-1.47 6.15 6.15 0 0 0-3.86-1.34 7.2 7.2 0 0 0-3.5.77 6.41 6.41 0 0 0-2.29 2.09 10.07 10.07 0 0 0-1.39 3.26 17.57 17.57 0 0 0-.47 4.06 16.22 16.22 0 0 0 .46 3.87 9.82 9.82 0 0 0 1.38 3.16A6.49 6.49 0 0 0 253 330a7.2 7.2 0 0 0 3.51.77 5.28 5.28 0 0 0 4.12-1.54 5.74 5.74 0 0 0 1.25-2 6.11 6.11 0 0 1 5.68-4.38h1.56a4.45 4.45 0 0 1 4.47 5.29 15.22 15.22 0 0 1-1.2 3.56 16.48 16.48 0 0 1-3.74 5.2 16 16 0 0 1-5.45 3.3 19.56 19.56 0 0 1-6.73 1.07z"/><path class="cls-2" d="M256.47 302.13a17.89 17.89 0 0 1 5.53.87 15 15 0 0 1 4.67 2.46 13.31 13.31 0 0 1 3.41 4 9.93 9.93 0 0 1 1.09 2.53 2.35 2.35 0 0 1-2.4 2.94h-1.56c-1.65 0-3.19-.77-3.43-1.72l-.46-.75a7.89 7.89 0 0 0-1.74-2 8.15 8.15 0 0 0-5.12-1.79 9.1 9.1 0 0 0-4.47 1 8.44 8.44 0 0 0-3 2.73 12 12 0 0 0-1.67 3.9 19.48 19.48 0 0 0-.52 4.53 18.11 18.11 0 0 0 .52 4.35A11.75 11.75 0 0 0 249 329a8.51 8.51 0 0 0 3 2.71 9.1 9.1 0 0 0 4.47 1 7.22 7.22 0 0 0 5.59-2.19 7.49 7.49 0 0 0 1.71-2.86 4.1 4.1 0 0 1 3.75-2.9h1.56a2.46 2.46 0 0 1 2.5 3 13.43 13.43 0 0 1-1 3.06 14.41 14.41 0 0 1-3.28 4.57 13.94 13.94 0 0 1-4.77 2.88 17.5 17.5 0 0 1-6 1 18.19 18.19 0 0 1-7.33-1.42 15.73 15.73 0 0 1-5.49-3.9 17.28 17.28 0 0 1-3.43-5.84 21.42 21.42 0 0 1-1.19-7.23 22.17 22.17 0 0 1 1.19-7.38 17.75 17.75 0 0 1 3.43-5.94 15.71 15.71 0 0 1 5.49-4 17.92 17.92 0 0 1 7.33-1.44m0-4a22 22 0 0 0-9 1.78 19.75 19.75 0 0 0-6.87 5 21.81 21.81 0 0 0-4.21 7.27 26.25 26.25 0 0 0-1.42 8.71 25.51 25.51 0 0 0 1.42 8.58 21.33 21.33 0 0 0 4.22 7.18 19.77 19.77 0 0 0 6.87 4.9 22.23 22.23 0 0 0 8.93 1.75 21.56 21.56 0 0 0 7.38-1.23 18 18 0 0 0 6.13-3.71 18.46 18.46 0 0 0 4.19-5.83 17.15 17.15 0 0 0 1.36-4.08 6.45 6.45 0 0 0-6.45-7.62h-1.56a8.09 8.09 0 0 0-7.6 5.81 4 4 0 0 1-.8 1.25 3.25 3.25 0 0 1-2.65.9 5.26 5.26 0 0 1-2.53-.52 4.53 4.53 0 0 1-1.61-1.45 7.72 7.72 0 0 1-1.1-2.53 14.19 14.19 0 0 1-.41-3.39 15.58 15.58 0 0 1 .41-3.6 8 8 0 0 1 1.1-2.61 4.46 4.46 0 0 1 1.59-1.46 5.27 5.27 0 0 1 2.53-.52 4.11 4.11 0 0 1 1.41.24 4 4 0 0 1 1.2.66 3.88 3.88 0 0 1 .86 1l.25.41c1 2.36 3.79 3.94 7 3.94h1.56a6.35 6.35 0 0 0 6.32-7.74 13.52 13.52 0 0 0-1.52-3.69 17.35 17.35 0 0 0-4.43-5.19 19.09 19.09 0 0 0-5.9-3.12 22 22 0 0 0-6.78-1z"/><path class="cls-8" d="M302.26 341.27a20.24 20.24 0 0 1-8.13-1.58 17.74 17.74 0 0 1-6.18-4.4 19.32 19.32 0 0 1-3.83-6.51 23.52 23.52 0 0 1-1.31-7.9 24.29 24.29 0 0 1 1.31-8 19.81 19.81 0 0 1 3.82-6.61 17.76 17.76 0 0 1 6.18-4.48 21.42 21.42 0 0 1 16.31 0 17.81 17.81 0 0 1 6.15 4.48 19.84 19.84 0 0 1 3.82 6.6 24.3 24.3 0 0 1 1.3 8 23.53 23.53 0 0 1-1.31 7.9 19.37 19.37 0 0 1-3.83 6.51 17.82 17.82 0 0 1-6.15 4.4 20.2 20.2 0 0 1-8.15 1.59zm0-30.58a7.2 7.2 0 0 0-3.5.77 6.42 6.42 0 0 0-2.29 2.1 10 10 0 0 0-1.38 3.26 17.54 17.54 0 0 0-.47 4.06 16.16 16.16 0 0 0 .46 3.87 9.81 9.81 0 0 0 1.38 3.16 6.5 6.5 0 0 0 2.3 2.08 8.38 8.38 0 0 0 7 0 6.51 6.51 0 0 0 2.29-2.08 9.81 9.81 0 0 0 1.38-3.16 16.16 16.16 0 0 0 .46-3.87 17.5 17.5 0 0 0-.47-4.06 10.05 10.05 0 0 0-1.38-3.26 6.42 6.42 0 0 0-2.29-2.09 7.2 7.2 0 0 0-3.49-.78z"/><path class="cls-2" d="M302.26 302.13a17.88 17.88 0 0 1 7.36 1.44 15.75 15.75 0 0 1 5.47 4 17.77 17.77 0 0 1 3.43 5.94 22.19 22.19 0 0 1 1.19 7.38 21.45 21.45 0 0 1-1.19 7.23 17.3 17.3 0 0 1-3.43 5.84 15.77 15.77 0 0 1-5.47 3.9 19.74 19.74 0 0 1-14.69 0 15.71 15.71 0 0 1-5.49-3.9 17.27 17.27 0 0 1-3.43-5.84 21.45 21.45 0 0 1-1.19-7.23 22.19 22.19 0 0 1 1.19-7.38 17.73 17.73 0 0 1 3.43-5.94 15.69 15.69 0 0 1 5.49-4 17.92 17.92 0 0 1 7.33-1.44m0 30.63a9.11 9.11 0 0 0 4.48-1 8.53 8.53 0 0 0 3-2.71 11.75 11.75 0 0 0 1.67-3.8 18.06 18.06 0 0 0 .52-4.35 19.42 19.42 0 0 0-.52-4.53 12 12 0 0 0-1.67-3.9 8.46 8.46 0 0 0-3-2.73 10.33 10.33 0 0 0-8.95 0 8.45 8.45 0 0 0-3 2.73 12 12 0 0 0-1.66 3.9 19.42 19.42 0 0 0-.52 4.53 18.06 18.06 0 0 0 .52 4.35 11.72 11.72 0 0 0 1.66 3.8 8.52 8.52 0 0 0 3 2.71 9.1 9.1 0 0 0 4.47 1m0-34.63a22 22 0 0 0-9 1.78 19.73 19.73 0 0 0-6.87 5 21.79 21.79 0 0 0-4.21 7.27 26.28 26.28 0 0 0-1.42 8.71 25.53 25.53 0 0 0 1.42 8.57 21.32 21.32 0 0 0 4.23 7.18 19.75 19.75 0 0 0 6.87 4.89 23.72 23.72 0 0 0 17.89 0 19.81 19.81 0 0 0 6.84-4.89 21.36 21.36 0 0 0 4.23-7.18 25.53 25.53 0 0 0 1.42-8.58 26.28 26.28 0 0 0-1.42-8.71 21.83 21.83 0 0 0-4.21-7.27 19.79 19.79 0 0 0-6.84-5 21.92 21.92 0 0 0-9-1.79zm0 30.63a5.26 5.26 0 0 1-2.53-.52 4.54 4.54 0 0 1-1.61-1.45 7.69 7.69 0 0 1-1.09-2.52 14.15 14.15 0 0 1-.41-3.39 15.52 15.52 0 0 1 .41-3.6 7.94 7.94 0 0 1 1.1-2.61 4.47 4.47 0 0 1 1.59-1.46 6.46 6.46 0 0 1 5.07 0 4.47 4.47 0 0 1 1.59 1.46 8 8 0 0 1 1.1 2.61 15.52 15.52 0 0 1 .41 3.6 14.14 14.14 0 0 1-.41 3.39 7.72 7.72 0 0 1-1.09 2.52 4.55 4.55 0 0 1-1.61 1.45 5.27 5.27 0 0 1-2.54.52z"/><path class="cls-8" d="M367.9 340.48a5 5 0 0 1-5-5v-10.55l-3.9 11.36a6.23 6.23 0 0 1-11.76 0l-3.92-11.23v10.4a5 5 0 0 1-5 5H337a5 5 0 0 1-5-5V306a5 5 0 0 1 5-5h5a6.44 6.44 0 0 1 5.86 4.2l5.44 16 5.13-16a6.43 6.43 0 0 1 5.82-4.24h5a5 5 0 0 1 5 5v29.5a5 5 0 0 1-5 5z"/><path class="cls-2" d="M369.21 303a3 3 0 0 1 3 3v29.5a3 3 0 0 1-3 3h-1.31a3 3 0 0 1-3-3v-22.19s-.49 1.28-1 2.84l-6.74 19.49a4.52 4.52 0 0 1-4 2.84 4.53 4.53 0 0 1-4-2.83l-6.72-19.25c-.54-1.56-1-2.83-1-2.83v21.91a3 3 0 0 1-3 3H337a3 3 0 0 1-3-3V306a3 3 0 0 1 3-3h5a4.49 4.49 0 0 1 4 2.84l6.37 18.73c.53 1.56 1 2.84 1 2.84s.46-1.29 1-2.86l6-18.7a4.4 4.4 0 0 1 3.92-2.86h5m0-4h-5a8.42 8.42 0 0 0-7.73 5.63l-3.28 10.2-3.5-10.28A8.52 8.52 0 0 0 342 299h-5a7 7 0 0 0-7 7v29.5a7 7 0 0 0 7 7h1.31a7 7 0 0 0 6.91-5.87l.12.36a8.23 8.23 0 0 0 15.54 0l.13-.36a7 7 0 0 0 6.91 5.89h1.31a7 7 0 0 0 7-7V306a7 7 0 0 0-7-7z"/><path class="cls-8" d="M391 340.48a5 5 0 0 1-5-5V306a5 5 0 0 1 5-5h20.55a5 5 0 0 1 5 5v.56a5 5 0 0 1-5 5h-12.73a1 1 0 0 0-1 1v1.61a1 1 0 0 0 1 1H410a5 5 0 0 1 0 10.07h-11.2a1 1 0 0 0-1 1v2.7a1 1 0 0 0 1 1H412a5 5 0 0 1 5 5v.56a5 5 0 0 1-5 5z"/><path class="cls-2" d="M411.56 303a3 3 0 0 1 3 3v.56a3 3 0 0 1-3 3h-12.74a3 3 0 0 0-3 3v1.61a3 3 0 0 0 3 3H410a3 3 0 0 1 3 3v.07a3 3 0 0 1-3 3h-11.2a3 3 0 0 0-3 3v2.7a3 3 0 0 0 3 3H412a3 3 0 0 1 3 3v.56a3 3 0 0 1-3 3h-21a3 3 0 0 1-3-3V306a3 3 0 0 1 3-3h20.55m0-4H391a7 7 0 0 0-7 7v29.5a7 7 0 0 0 7 7h21a7 7 0 0 0 7-7v-.56a7 7 0 0 0-7-7h-12.18v-.7H410a7 7 0 0 0 7-7v-.07a7 7 0 0 0-4.79-6.64 7 7 0 0 0 6.33-7V306a7 7 0 0 0-7-7z"/></svg>