<svg xmlns="http://www.w3.org/2000/svg" viewBox="0 0 520 370"><defs><style>.cls-1{fill:#dfdfdf}.cls-2{fill:#4d4d4d}.cls-3,.cls-6,.cls-8{fill:none}.cls-3,.cls-4,.cls-6,.cls-9{stroke:#4d4d4d;stroke-width:5px}.cls-3,.cls-4{stroke-miterlimit:10}.cls-4,.cls-5,.cls-9{fill:#fff}.cls-6,.cls-8,.cls-9{stroke-linecap:round;stroke-linejoin:round}.cls-7{fill:#00a8de}.cls-8{stroke:#fff;stroke-width:10px}</style></defs><title>Step 2</title><g id="Step_1" data-name="Step 1"><path class="cls-1" d="M412.75 348.5a9.6 9.6 0 0 1-1.89-.19l-179.73-35.86a9.6 9.6 0 0 1-7.54-11.3L273.13 53.7a9.63 9.63 0 0 1 9.41-7.7 9.73 9.73 0 0 1 1.89.19L464.16 82a9.6 9.6 0 0 1 7.54 11.3l-49.54 247.48a9.63 9.63 0 0 1-9.41 7.72z"/><path class="cls-2" d="M282.54 48.48a7.13 7.13 0 0 1 1.4.14l179.73 35.87a7.1 7.1 0 0 1 5.57 8.36l-49.53 247.44a7.1 7.1 0 0 1-8.36 5.57L231.62 310a7.1 7.1 0 0 1-5.57-8.36l49.53-247.45a7.11 7.11 0 0 1 7-5.71m0-5a12.13 12.13 0 0 0-11.86 9.73l-49.57 247.44a12.1 12.1 0 0 0 9.5 14.25l179.73 35.87a12.1 12.1 0 0 0 14.24-9.49l49.53-247.45a12.1 12.1 0 0 0-9.5-14.25L284.91 43.72a12.16 12.16 0 0 0-2.38-.24z"/><path class="cls-1" d="M107.25 348.5a9.63 9.63 0 0 1-9.41-7.72L48.31 93.34A9.6 9.6 0 0 1 55.84 82l179.74-35.83a9.59 9.59 0 0 1 11.3 7.53l49.52 247.45a9.6 9.6 0 0 1-7.54 11.3l-179.73 35.87a9.66 9.66 0 0 1-1.89.19z"/><path class="cls-2" d="M237.46 48.48a7.11 7.11 0 0 1 7 5.71L294 301.64a7.1 7.1 0 0 1-5.57 8.36l-179.79 35.86a7.1 7.1 0 0 1-8.36-5.57L50.76 92.85a7.1 7.1 0 0 1 5.57-8.36l179.73-35.87a7.13 7.13 0 0 1 1.4-.14m0-5a12.17 12.17 0 0 0-2.38.24L55.35 79.58a12.1 12.1 0 0 0-9.5 14.25l49.54 247.44a12.1 12.1 0 0 0 14.24 9.49l179.73-35.86a12.1 12.1 0 0 0 9.5-14.25L249.32 53.21a12.13 12.13 0 0 0-11.86-9.73z"/><rect class="cls-3" x="161.25" y="13.28" width="197.49" height="266.54" rx="7.1" ry="7.1"/><rect class="cls-4" x="161.25" y="13.28" width="197.49" height="266.54" rx="7.1" ry="7.1"/><path class="cls-5" d="M260 143.92a53.87 53.87 0 1 1 54-53.87 54 54 0 0 1-54 53.87z"/><path class="cls-2" d="M260 38.68a51.37 51.37 0 1 1-51.46 51.37A51.47 51.47 0 0 1 260 38.68m0-5a56.37 56.37 0 1 0 56.46 56.37A56.41 56.41 0 0 0 260 33.68z"/><path class="cls-3" d="M223.88 136.82a36.12 36.12 0 0 1 72.24 0c0 19.92-72.24 19.92-72.24 0z"/><ellipse class="cls-4" cx="260" cy="81.85" rx="24.85" ry="24.81"/><path class="cls-5" d="M260 33.68a56.37 56.37 0 1 1-56.46 56.37A56.41 56.41 0 0 1 260 33.68m0-10a66.37 66.37 0 1 0 66.46 66.37A66.49 66.49 0 0 0 260 23.68z"/><path class="cls-6" d="M208.21 162.29h103.58m-103.58 29.24h103.58"/><ellipse class="cls-7" cx="260" cy="285.71" rx="73.62" ry="73.51"/><path class="cls-8" d="M230.93 289.54l15.89 15.87 42.25-39.4"/><path class="cls-9" d="M515.78 197.08a585.9 585.9 0 0 0-101.19-43 27.68 27.68 0 0 0-46.83-4.93c-.2-.1-.38-.22-.58-.31a21.75 21.75 0 0 0-30.66 24.3 21.72 21.72 0 0 0 .29 39.08c.2.1.41.16.61.25a27.64 27.64 0 0 0 33.23 33.31A585.49 585.49 0 0 0 467 297.1"/><path class="cls-7" d="M347.19 226.72a8.6 8.6 0 1 1 10.81 5.52 8.59 8.59 0 0 1-10.81-5.52zm-10.91-30.79a8.6 8.6 0 1 1 10.84 5.52 8.59 8.59 0 0 1-10.84-5.52zM385 147.74a8.59 8.59 0 1 0 11.11 5 8.59 8.59 0 0 0-11.11-5zm-30.83 10.84a8.59 8.59 0 1 0 11.11 5 8.59 8.59 0 0 0-11.11-5zM383.49 229a30.16 30.16 0 1 1 26.06-54.39c15.04 7.14-11.02 61.53-26.06 54.39z"/><path class="cls-2" d="M129.48 140.22a3.19 3.19 0 0 1-1.07-4.38l6-9.88a3.2 3.2 0 0 1 4.38-1.07 3.19 3.19 0 0 1 1.07 4.38l-6 9.88a3.2 3.2 0 0 1-4.38 1.07zm38.45 8.33a3.19 3.19 0 0 1 1.27-4.32l10.16-5.55a3.2 3.2 0 0 1 4.33 1.26 3.19 3.19 0 0 1-1.27 4.32l-10.16 5.55a3.2 3.2 0 0 1-4.33-1.26z"/><rect class="cls-2" x="178.53" y="210.37" width="6.37" height="17.96" rx="3.19" ry="3.19" transform="rotate(-88.69 181.715 219.348)"/><path class="cls-2" d="M186.44 182.31a3.2 3.2 0 0 0 4.33 1.26l10.15-5.57a3.19 3.19 0 0 0 1.27-4.32 3.2 3.2 0 0 0-4.33-1.26L187.7 178a3.19 3.19 0 0 0-1.26 4.31z"/><path class="cls-9" d="M52.51 296.7a586.82 586.82 0 0 0 97.84-58.7 27.64 27.64 0 0 0 31.36-35c.2-.1.4-.18.59-.29a21.72 21.72 0 0 0-1.85-39A21.75 21.75 0 0 0 148.52 141c-.19.11-.37.23-.56.34a27.67 27.67 0 0 0-46.49 7.47 585.42 585.42 0 0 0-97.7 47.93"/></g></svg>